<svg xmlns="http://www.w3.org/2000/svg" viewBox="0 0 512 512" width="512" height="512">
  <rect width="512" height="512" rx="132.74" fill="#efc599"/>
  <g transform="translate(-83.753 -27.128) scale(1.132510)">
    <path d="M212 214 C 196 168 200 122 216 104 C 232 118 258 152 268 196 Z" fill="#d89c6e"/>
    <path d="M222 200 C 212 170 214 142 222 128 C 232 146 244 172 250 194 Z" fill="#e2baac"/>
    <path d="M388 214 C 404 168 400 122 384 104 C 368 118 342 152 332 196 Z" fill="#d89c6e"/>
    <path d="M378 200 C 388 170 386 142 378 128 C 368 146 356 172 350 194 Z" fill="#e2baac"/>
    <ellipse cx="300" cy="268" rx="132" ry="118" fill="#efc599"/>
    <ellipse cx="300" cy="304" rx="78" ry="62" fill="#f9f3e6"/>
    <ellipse cx="248" cy="256" rx="17" ry="19" fill="#30271f"/>
    <ellipse cx="352" cy="256" rx="17" ry="19" fill="#30271f"/>
    <circle cx="254" cy="249" r="5.5" fill="#fdfcf8"/>
    <circle cx="358" cy="249" r="5.5" fill="#fdfcf8"/>
    <ellipse cx="300" cy="292" rx="19" ry="14" fill="#392a24"/>
    <path d="M276 310 Q 288 324 300 310 Q 312 324 324 310" fill="none" stroke="#392a24" stroke-width="6" stroke-linecap="round"/>
  </g>
</svg>